<mxfile host="app.diagrams.net" modified="2024-05-30T14:31:36.469Z" agent="Mozilla/5.0 (Windows NT 10.0; Win64; x64) AppleWebKit/537.36 (KHTML, like Gecko) Chrome/125.0.0.0 Safari/537.36" etag="2IddJZg3ycZ6nTHqWZ0X" version="24.4.10" type="github">
  <diagram id="C5RBs43oDa-KdzZeNtuy" name="Page-1">
    <mxGraphModel dx="989" dy="532" grid="1" gridSize="10" guides="1" tooltips="1" connect="1" arrows="1" fold="1" page="1" pageScale="1" pageWidth="827" pageHeight="1169" math="0" shadow="0">
      <root>
        <mxCell id="WIyWlLk6GJQsqaUBKTNV-0" />
        <mxCell id="WIyWlLk6GJQsqaUBKTNV-1" parent="WIyWlLk6GJQsqaUBKTNV-0" />
        <mxCell id="WIyWlLk6GJQsqaUBKTNV-2" value="" style="rounded=0;html=1;jettySize=auto;orthogonalLoop=1;fontSize=11;endArrow=block;endFill=0;endSize=8;strokeWidth=1;shadow=0;labelBackgroundColor=none;edgeStyle=orthogonalEdgeStyle;" parent="WIyWlLk6GJQsqaUBKTNV-1" source="WIyWlLk6GJQsqaUBKTNV-3" edge="1">
          <mxGeometry relative="1" as="geometry">
            <mxPoint x="232.5" y="300" as="targetPoint" />
          </mxGeometry>
        </mxCell>
        <mxCell id="-rypncLCnnnrmYgA9d1G-1" value="uC is powered and booted" style="edgeLabel;html=1;align=center;verticalAlign=middle;resizable=0;points=[];" parent="WIyWlLk6GJQsqaUBKTNV-2" vertex="1" connectable="0">
          <mxGeometry x="-0.0725" y="1" relative="1" as="geometry">
            <mxPoint x="-1" as="offset" />
          </mxGeometry>
        </mxCell>
        <mxCell id="WIyWlLk6GJQsqaUBKTNV-3" value="&lt;b&gt;State 1 Boot:&lt;/b&gt;&lt;div&gt;Waiting for Qsw on&lt;/div&gt;" style="rounded=1;whiteSpace=wrap;html=1;fontSize=12;glass=0;strokeWidth=1;shadow=0;" parent="WIyWlLk6GJQsqaUBKTNV-1" vertex="1">
          <mxGeometry x="172.5" y="210" width="120" height="40" as="geometry" />
        </mxCell>
        <mxCell id="WIyWlLk6GJQsqaUBKTNV-4" value="&lt;span style=&quot;background-color: rgb(255, 255, 255);&quot;&gt;Vdummy &amp;gt;= Vdummy_useBoost&lt;/span&gt;" style="rounded=0;html=1;jettySize=auto;orthogonalLoop=1;fontSize=11;endArrow=block;endFill=0;endSize=8;strokeWidth=1;shadow=0;labelBackgroundColor=none;edgeStyle=orthogonalEdgeStyle;exitX=0.5;exitY=1;exitDx=0;exitDy=0;entryX=0.5;entryY=0;entryDx=0;entryDy=0;" parent="WIyWlLk6GJQsqaUBKTNV-1" source="-rypncLCnnnrmYgA9d1G-2" target="-rypncLCnnnrmYgA9d1G-3" edge="1">
          <mxGeometry x="0.047" y="19" relative="1" as="geometry">
            <mxPoint y="-1" as="offset" />
            <mxPoint x="482.5" y="340" as="sourcePoint" />
            <mxPoint x="482.5344827586207" y="380.02758620689656" as="targetPoint" />
          </mxGeometry>
        </mxCell>
        <mxCell id="WIyWlLk6GJQsqaUBKTNV-5" value="&lt;span style=&quot;background-color: rgb(255, 255, 255);&quot;&gt;Vdummy &amp;gt;= Vdummy_ready&lt;/span&gt;" style="edgeStyle=orthogonalEdgeStyle;rounded=0;html=1;jettySize=auto;orthogonalLoop=1;fontSize=11;endArrow=block;endFill=0;endSize=8;strokeWidth=1;shadow=0;labelBackgroundColor=none;entryX=0.5;entryY=0;entryDx=0;entryDy=0;exitX=0.5;exitY=1;exitDx=0;exitDy=0;" parent="WIyWlLk6GJQsqaUBKTNV-1" source="WIyWlLk6GJQsqaUBKTNV-7" target="-rypncLCnnnrmYgA9d1G-2" edge="1">
          <mxGeometry relative="1" as="geometry">
            <mxPoint as="offset" />
            <mxPoint x="292.5" y="410" as="sourcePoint" />
            <Array as="points" />
          </mxGeometry>
        </mxCell>
        <mxCell id="WIyWlLk6GJQsqaUBKTNV-7" value="&lt;b&gt;State 2 Prepare:&lt;/b&gt;&lt;div&gt;Buck FETs on, wait for Vdummy to rise&lt;/div&gt;" style="rounded=1;whiteSpace=wrap;html=1;fontSize=12;glass=0;strokeWidth=1;shadow=0;" parent="WIyWlLk6GJQsqaUBKTNV-1" vertex="1">
          <mxGeometry x="172.5" y="300" width="120" height="70" as="geometry" />
        </mxCell>
        <mxCell id="-rypncLCnnnrmYgA9d1G-2" value="&lt;b&gt;State 3 Bypass:&lt;/b&gt;&lt;div&gt;Output On, Bypass On&lt;/div&gt;" style="rounded=1;whiteSpace=wrap;html=1;fontSize=12;glass=0;strokeWidth=1;shadow=0;" parent="WIyWlLk6GJQsqaUBKTNV-1" vertex="1">
          <mxGeometry x="172.5" y="430" width="120" height="70" as="geometry" />
        </mxCell>
        <mxCell id="-rypncLCnnnrmYgA9d1G-3" value="&lt;b&gt;State 4 B/B CC:&lt;/b&gt;&lt;div&gt;Bypass off, enable charge boost, regulate Vdummy to V_NiCd_target_charging&lt;/div&gt;" style="rounded=1;whiteSpace=wrap;html=1;fontSize=12;glass=0;strokeWidth=1;shadow=0;" parent="WIyWlLk6GJQsqaUBKTNV-1" vertex="1">
          <mxGeometry x="160" y="550" width="145" height="100" as="geometry" />
        </mxCell>
        <mxCell id="-rypncLCnnnrmYgA9d1G-4" value="&lt;b&gt;State 5 B/B CV:&lt;/b&gt;&lt;div&gt;Unused, skip to state 6&lt;/div&gt;" style="rounded=1;whiteSpace=wrap;html=1;fontSize=12;glass=0;strokeWidth=1;shadow=0;" parent="WIyWlLk6GJQsqaUBKTNV-1" vertex="1">
          <mxGeometry x="422.5" y="500" width="111" height="50" as="geometry" />
        </mxCell>
        <mxCell id="-rypncLCnnnrmYgA9d1G-5" value="&lt;span style=&quot;background-color: rgb(255, 255, 255);&quot;&gt;Vlithium &amp;gt;= V_Lithium_charged&lt;/span&gt;" style="rounded=0;html=1;jettySize=auto;orthogonalLoop=1;fontSize=11;endArrow=block;endFill=0;endSize=8;strokeWidth=1;shadow=0;labelBackgroundColor=none;edgeStyle=orthogonalEdgeStyle;exitX=1;exitY=0.5;exitDx=0;exitDy=0;entryX=0.5;entryY=1;entryDx=0;entryDy=0;" parent="WIyWlLk6GJQsqaUBKTNV-1" source="-rypncLCnnnrmYgA9d1G-3" target="-rypncLCnnnrmYgA9d1G-4" edge="1">
          <mxGeometry x="-0.1845" y="10" relative="1" as="geometry">
            <mxPoint as="offset" />
            <mxPoint x="242.5" y="510" as="sourcePoint" />
            <mxPoint x="242.5" y="560" as="targetPoint" />
          </mxGeometry>
        </mxCell>
        <mxCell id="-rypncLCnnnrmYgA9d1G-6" value="&lt;b&gt;State 6 Trickle:&lt;/b&gt;&lt;div&gt;Disable Qsw, buck FETs on for uC power, enable dummy load, regulate Vdummy to V_NiCd_target_charged&lt;/div&gt;" style="rounded=1;whiteSpace=wrap;html=1;fontSize=12;glass=0;strokeWidth=1;shadow=0;" parent="WIyWlLk6GJQsqaUBKTNV-1" vertex="1">
          <mxGeometry x="402.5" y="360" width="151" height="100" as="geometry" />
        </mxCell>
        <mxCell id="-rypncLCnnnrmYgA9d1G-7" value="" style="rounded=0;html=1;jettySize=auto;orthogonalLoop=1;fontSize=11;endArrow=block;endFill=0;endSize=8;strokeWidth=1;shadow=0;labelBackgroundColor=none;edgeStyle=orthogonalEdgeStyle;exitX=0.5;exitY=0;exitDx=0;exitDy=0;entryX=0.5;entryY=1;entryDx=0;entryDy=0;" parent="WIyWlLk6GJQsqaUBKTNV-1" source="-rypncLCnnnrmYgA9d1G-4" target="-rypncLCnnnrmYgA9d1G-6" edge="1">
          <mxGeometry x="0.045" y="20" relative="1" as="geometry">
            <mxPoint as="offset" />
            <mxPoint x="315.5" y="610" as="sourcePoint" />
            <mxPoint x="436.5" y="540" as="targetPoint" />
          </mxGeometry>
        </mxCell>
        <mxCell id="-rypncLCnnnrmYgA9d1G-8" value="&lt;b&gt;State 7 Recover:&lt;/b&gt;&lt;div&gt;Qsw on, disable dummy load, wait for dip or rise&amp;nbsp;&lt;/div&gt;" style="rounded=1;whiteSpace=wrap;html=1;fontSize=12;glass=0;strokeWidth=1;shadow=0;" parent="WIyWlLk6GJQsqaUBKTNV-1" vertex="1">
          <mxGeometry x="402.5" y="210" width="151" height="100" as="geometry" />
        </mxCell>
        <mxCell id="-rypncLCnnnrmYgA9d1G-12" value="" style="triangle;whiteSpace=wrap;html=1;rotation=-90;" parent="WIyWlLk6GJQsqaUBKTNV-1" vertex="1">
          <mxGeometry x="342.5" y="190" width="10" height="10" as="geometry" />
        </mxCell>
        <mxCell id="-rypncLCnnnrmYgA9d1G-15" value="" style="edgeStyle=orthogonalEdgeStyle;rounded=0;html=1;jettySize=auto;orthogonalLoop=1;fontSize=11;endArrow=none;endFill=0;strokeWidth=1;shadow=0;labelBackgroundColor=none;entryX=0;entryY=0.5;entryDx=0;entryDy=0;exitX=1;exitY=0.5;exitDx=0;exitDy=0;curved=1;" parent="WIyWlLk6GJQsqaUBKTNV-1" source="-rypncLCnnnrmYgA9d1G-2" target="-rypncLCnnnrmYgA9d1G-12" edge="1">
          <mxGeometry relative="1" as="geometry">
            <mxPoint as="offset" />
            <mxPoint x="242.5" y="380" as="sourcePoint" />
            <mxPoint x="242.5" y="440" as="targetPoint" />
            <Array as="points" />
          </mxGeometry>
        </mxCell>
        <mxCell id="-rypncLCnnnrmYgA9d1G-17" value="" style="edgeStyle=orthogonalEdgeStyle;rounded=0;html=1;jettySize=auto;orthogonalLoop=1;fontSize=11;endArrow=none;endFill=0;strokeWidth=1;shadow=0;labelBackgroundColor=none;exitX=1;exitY=0.5;exitDx=0;exitDy=0;curved=1;entryX=0;entryY=0.5;entryDx=0;entryDy=0;" parent="WIyWlLk6GJQsqaUBKTNV-1" source="-rypncLCnnnrmYgA9d1G-3" target="-rypncLCnnnrmYgA9d1G-12" edge="1">
          <mxGeometry relative="1" as="geometry">
            <mxPoint as="offset" />
            <mxPoint x="302.5" y="475" as="sourcePoint" />
            <mxPoint x="372.5" y="240" as="targetPoint" />
            <Array as="points" />
          </mxGeometry>
        </mxCell>
        <mxCell id="-rypncLCnnnrmYgA9d1G-18" value="" style="edgeStyle=orthogonalEdgeStyle;rounded=0;html=1;jettySize=auto;orthogonalLoop=1;fontSize=11;endArrow=none;endFill=0;strokeWidth=1;shadow=0;labelBackgroundColor=none;exitX=0;exitY=0.5;exitDx=0;exitDy=0;curved=1;entryX=0;entryY=0.5;entryDx=0;entryDy=0;" parent="WIyWlLk6GJQsqaUBKTNV-1" source="-rypncLCnnnrmYgA9d1G-4" target="-rypncLCnnnrmYgA9d1G-12" edge="1">
          <mxGeometry relative="1" as="geometry">
            <mxPoint as="offset" />
            <mxPoint x="315.5" y="610" as="sourcePoint" />
            <mxPoint x="362.5" y="330" as="targetPoint" />
            <Array as="points" />
          </mxGeometry>
        </mxCell>
        <mxCell id="-rypncLCnnnrmYgA9d1G-19" value="" style="edgeStyle=orthogonalEdgeStyle;rounded=0;html=1;jettySize=auto;orthogonalLoop=1;fontSize=11;endArrow=none;endFill=0;strokeWidth=1;shadow=0;labelBackgroundColor=none;exitX=0;exitY=0.5;exitDx=0;exitDy=0;curved=1;entryX=0;entryY=0.5;entryDx=0;entryDy=0;" parent="WIyWlLk6GJQsqaUBKTNV-1" source="-rypncLCnnnrmYgA9d1G-6" target="-rypncLCnnnrmYgA9d1G-12" edge="1">
          <mxGeometry relative="1" as="geometry">
            <mxPoint as="offset" />
            <mxPoint x="429.5" y="525" as="sourcePoint" />
            <mxPoint x="357.5" y="330" as="targetPoint" />
            <Array as="points" />
          </mxGeometry>
        </mxCell>
        <mxCell id="-rypncLCnnnrmYgA9d1G-20" value="&lt;b&gt;State 8 Emergency:&lt;/b&gt;&lt;div&gt;Qsw on, Enable discharge Buck, regulate Vdummy to V_NiCd_target_discharging&lt;/div&gt;" style="rounded=1;whiteSpace=wrap;html=1;fontSize=12;glass=0;strokeWidth=1;shadow=0;" parent="WIyWlLk6GJQsqaUBKTNV-1" vertex="1">
          <mxGeometry x="402.5" y="50" width="151" height="100" as="geometry" />
        </mxCell>
        <mxCell id="-rypncLCnnnrmYgA9d1G-22" value="" style="rounded=0;html=1;jettySize=auto;orthogonalLoop=1;fontSize=11;endArrow=block;endFill=0;endSize=8;strokeWidth=1;shadow=0;labelBackgroundColor=none;edgeStyle=orthogonalEdgeStyle;entryX=0;entryY=0.5;entryDx=0;entryDy=0;exitX=1;exitY=0.5;exitDx=0;exitDy=0;" parent="WIyWlLk6GJQsqaUBKTNV-1" source="-rypncLCnnnrmYgA9d1G-12" target="-rypncLCnnnrmYgA9d1G-20" edge="1">
          <mxGeometry x="0.045" y="20" relative="1" as="geometry">
            <mxPoint as="offset" />
            <mxPoint x="310" y="110" as="sourcePoint" />
            <mxPoint x="488" y="460" as="targetPoint" />
          </mxGeometry>
        </mxCell>
        <mxCell id="-rypncLCnnnrmYgA9d1G-24" value="Vdummy &amp;lt;= Vdummy_emergency" style="edgeLabel;html=1;align=center;verticalAlign=middle;resizable=0;points=[];" parent="-rypncLCnnnrmYgA9d1G-22" vertex="1" connectable="0">
          <mxGeometry x="-0.0899" relative="1" as="geometry">
            <mxPoint x="13" y="36" as="offset" />
          </mxGeometry>
        </mxCell>
        <mxCell id="-rypncLCnnnrmYgA9d1G-23" value="" style="edgeStyle=orthogonalEdgeStyle;rounded=0;html=1;jettySize=auto;orthogonalLoop=1;fontSize=11;endArrow=none;endFill=0;strokeWidth=1;shadow=0;labelBackgroundColor=none;exitX=0;exitY=0.5;exitDx=0;exitDy=0;curved=1;entryX=0;entryY=0.5;entryDx=0;entryDy=0;" parent="WIyWlLk6GJQsqaUBKTNV-1" source="-rypncLCnnnrmYgA9d1G-8" target="-rypncLCnnnrmYgA9d1G-12" edge="1">
          <mxGeometry relative="1" as="geometry">
            <mxPoint as="offset" />
            <mxPoint x="413" y="410" as="sourcePoint" />
            <mxPoint x="350" y="170" as="targetPoint" />
            <Array as="points" />
          </mxGeometry>
        </mxCell>
        <mxCell id="-rypncLCnnnrmYgA9d1G-31" style="edgeStyle=orthogonalEdgeStyle;rounded=0;orthogonalLoop=1;jettySize=auto;html=1;exitX=0.5;exitY=1;exitDx=0;exitDy=0;shape=flexArrow;" parent="WIyWlLk6GJQsqaUBKTNV-1" source="-rypncLCnnnrmYgA9d1G-25" target="WIyWlLk6GJQsqaUBKTNV-3" edge="1">
          <mxGeometry relative="1" as="geometry" />
        </mxCell>
        <mxCell id="-rypncLCnnnrmYgA9d1G-32" value="power provided to boot cap" style="edgeLabel;html=1;align=center;verticalAlign=middle;resizable=0;points=[];" parent="-rypncLCnnnrmYgA9d1G-31" vertex="1" connectable="0">
          <mxGeometry x="0.0261" y="-4" relative="1" as="geometry">
            <mxPoint x="4" y="-26" as="offset" />
          </mxGeometry>
        </mxCell>
        <mxCell id="-rypncLCnnnrmYgA9d1G-25" value="&lt;b&gt;State 9 Off:&lt;/b&gt;&lt;div&gt;Everything off, uC dies&lt;/div&gt;" style="rounded=1;whiteSpace=wrap;html=1;fontSize=12;glass=0;strokeWidth=1;shadow=0;" parent="WIyWlLk6GJQsqaUBKTNV-1" vertex="1">
          <mxGeometry x="182" y="60" width="101" height="60" as="geometry" />
        </mxCell>
        <mxCell id="-rypncLCnnnrmYgA9d1G-26" value="" style="rounded=0;html=1;jettySize=auto;orthogonalLoop=1;fontSize=11;endArrow=block;endFill=0;endSize=8;strokeWidth=1;shadow=0;labelBackgroundColor=none;edgeStyle=orthogonalEdgeStyle;entryX=1;entryY=0.5;entryDx=0;entryDy=0;exitX=0.5;exitY=0;exitDx=0;exitDy=0;" parent="WIyWlLk6GJQsqaUBKTNV-1" source="-rypncLCnnnrmYgA9d1G-20" target="-rypncLCnnnrmYgA9d1G-25" edge="1">
          <mxGeometry x="0.045" y="20" relative="1" as="geometry">
            <mxPoint as="offset" />
            <mxPoint x="358" y="170" as="sourcePoint" />
            <mxPoint x="413" y="110" as="targetPoint" />
            <Array as="points">
              <mxPoint x="478" y="30" />
              <mxPoint x="320" y="30" />
              <mxPoint x="320" y="90" />
            </Array>
          </mxGeometry>
        </mxCell>
        <mxCell id="-rypncLCnnnrmYgA9d1G-27" value="Vlithium &amp;lt;= Vlithium_cutoff" style="edgeLabel;html=1;align=center;verticalAlign=middle;resizable=0;points=[];" parent="-rypncLCnnnrmYgA9d1G-26" vertex="1" connectable="0">
          <mxGeometry x="-0.0899" relative="1" as="geometry">
            <mxPoint x="17" y="-10" as="offset" />
          </mxGeometry>
        </mxCell>
        <mxCell id="-rypncLCnnnrmYgA9d1G-33" value="" style="rounded=0;html=1;jettySize=auto;orthogonalLoop=1;fontSize=11;endArrow=block;endFill=0;endSize=8;strokeWidth=1;shadow=0;labelBackgroundColor=none;edgeStyle=orthogonalEdgeStyle;entryX=0.5;entryY=0;entryDx=0;entryDy=0;exitX=0.5;exitY=1;exitDx=0;exitDy=0;" parent="WIyWlLk6GJQsqaUBKTNV-1" source="-rypncLCnnnrmYgA9d1G-20" target="-rypncLCnnnrmYgA9d1G-8" edge="1">
          <mxGeometry x="0.045" y="20" relative="1" as="geometry">
            <mxPoint as="offset" />
            <mxPoint x="358" y="200" as="sourcePoint" />
            <mxPoint x="413" y="110" as="targetPoint" />
          </mxGeometry>
        </mxCell>
        <mxCell id="-rypncLCnnnrmYgA9d1G-34" value="Vdummy &amp;gt;= Vdummy_mainsBack" style="edgeLabel;html=1;align=center;verticalAlign=middle;resizable=0;points=[];" parent="-rypncLCnnnrmYgA9d1G-33" vertex="1" connectable="0">
          <mxGeometry x="-0.0899" relative="1" as="geometry">
            <mxPoint x="12" y="2" as="offset" />
          </mxGeometry>
        </mxCell>
        <mxCell id="-rypncLCnnnrmYgA9d1G-35" value="" style="rounded=0;html=1;jettySize=auto;orthogonalLoop=1;fontSize=11;endArrow=block;endFill=0;endSize=8;strokeWidth=1;shadow=0;labelBackgroundColor=none;edgeStyle=orthogonalEdgeStyle;entryX=1;entryY=0.5;entryDx=0;entryDy=0;exitX=1;exitY=0.5;exitDx=0;exitDy=0;" parent="WIyWlLk6GJQsqaUBKTNV-1" source="-rypncLCnnnrmYgA9d1G-8" target="-rypncLCnnnrmYgA9d1G-6" edge="1">
          <mxGeometry x="0.045" y="20" relative="1" as="geometry">
            <mxPoint as="offset" />
            <mxPoint x="478" y="200" as="sourcePoint" />
            <mxPoint x="488" y="220" as="targetPoint" />
          </mxGeometry>
        </mxCell>
        <mxCell id="-rypncLCnnnrmYgA9d1G-36" value="Vdummy &amp;gt;= Vdummy_recover&amp;nbsp;" style="edgeLabel;html=1;align=center;verticalAlign=middle;resizable=0;points=[];" parent="-rypncLCnnnrmYgA9d1G-35" vertex="1" connectable="0">
          <mxGeometry x="-0.0899" relative="1" as="geometry">
            <mxPoint x="7" y="-6" as="offset" />
          </mxGeometry>
        </mxCell>
        <mxCell id="-rypncLCnnnrmYgA9d1G-37" value="" style="rounded=0;html=1;jettySize=auto;orthogonalLoop=1;fontSize=11;endArrow=block;endFill=0;endSize=8;strokeWidth=1;shadow=0;labelBackgroundColor=none;edgeStyle=orthogonalEdgeStyle;entryX=0.5;entryY=1;entryDx=0;entryDy=0;exitX=0.5;exitY=0;exitDx=0;exitDy=0;" parent="WIyWlLk6GJQsqaUBKTNV-1" source="-rypncLCnnnrmYgA9d1G-6" target="-rypncLCnnnrmYgA9d1G-8" edge="1">
          <mxGeometry x="0.045" y="20" relative="1" as="geometry">
            <mxPoint as="offset" />
            <mxPoint x="564" y="270" as="sourcePoint" />
            <mxPoint x="564" y="420" as="targetPoint" />
          </mxGeometry>
        </mxCell>
        <mxCell id="-rypncLCnnnrmYgA9d1G-38" value="Vdummy &amp;lt;= Vdummy_recover" style="edgeLabel;html=1;align=center;verticalAlign=middle;resizable=0;points=[];" parent="-rypncLCnnnrmYgA9d1G-37" vertex="1" connectable="0">
          <mxGeometry x="-0.0899" relative="1" as="geometry">
            <mxPoint x="2" y="2" as="offset" />
          </mxGeometry>
        </mxCell>
        <mxCell id="-rypncLCnnnrmYgA9d1G-42" value="" style="rounded=0;html=1;jettySize=auto;orthogonalLoop=1;fontSize=11;endArrow=block;endFill=0;endSize=8;strokeWidth=1;shadow=0;labelBackgroundColor=none;edgeStyle=orthogonalEdgeStyle;entryX=0.5;entryY=1;entryDx=0;entryDy=0;exitX=1;exitY=0.75;exitDx=0;exitDy=0;" parent="WIyWlLk6GJQsqaUBKTNV-1" source="-rypncLCnnnrmYgA9d1G-6" target="-rypncLCnnnrmYgA9d1G-3" edge="1">
          <mxGeometry x="0.045" y="20" relative="1" as="geometry">
            <mxPoint as="offset" />
            <mxPoint x="564" y="270" as="sourcePoint" />
            <mxPoint x="564" y="420" as="targetPoint" />
          </mxGeometry>
        </mxCell>
        <mxCell id="-rypncLCnnnrmYgA9d1G-43" value="Vlithium &amp;lt;= V_lithium_topUp" style="edgeLabel;html=1;align=center;verticalAlign=middle;resizable=0;points=[];" parent="-rypncLCnnnrmYgA9d1G-42" vertex="1" connectable="0">
          <mxGeometry x="-0.0899" relative="1" as="geometry">
            <mxPoint x="-98" y="-10" as="offset" />
          </mxGeometry>
        </mxCell>
      </root>
    </mxGraphModel>
  </diagram>
</mxfile>
